<svg xmlns="http://www.w3.org/2000/svg" width="323.257" height="9" viewBox="0 0 323.257 9">
  <path id="Path_48058" data-name="Path 48058" d="M8.935-6.364a4.957,4.957,0,0,1-.313,1.8,3.992,3.992,0,0,1-.885,1.388,3.944,3.944,0,0,1-1.37.894A4.765,4.765,0,0,1,4.6-1.966H1.3v-8.8H4.6a4.765,4.765,0,0,1,1.769.316,3.923,3.923,0,0,1,1.37.9,4.024,4.024,0,0,1,.885,1.391A4.957,4.957,0,0,1,8.935-6.364Zm-1.223,0a4.418,4.418,0,0,0-.221-1.45A3.056,3.056,0,0,0,6.865-8.9a2.672,2.672,0,0,0-.983-.676A3.4,3.4,0,0,0,4.6-9.8H2.5V-2.93H4.6a3.4,3.4,0,0,0,1.284-.233,2.69,2.69,0,0,0,.983-.673,3.024,3.024,0,0,0,.627-1.078A4.418,4.418,0,0,0,7.713-6.364Zm12.864,0a5.082,5.082,0,0,1-.313,1.815,4.157,4.157,0,0,1-.885,1.422,3.954,3.954,0,0,1-1.373.925,4.63,4.63,0,0,1-1.772.329A4.607,4.607,0,0,1,14.464-2.2a3.96,3.96,0,0,1-1.37-.925,4.157,4.157,0,0,1-.885-1.422A5.081,5.081,0,0,1,11.9-6.364a5.081,5.081,0,0,1,.313-1.815,4.19,4.19,0,0,1,.885-1.425,3.975,3.975,0,0,1,1.37-.931,4.57,4.57,0,0,1,1.769-.332,4.592,4.592,0,0,1,1.772.332,3.969,3.969,0,0,1,1.373.931,4.19,4.19,0,0,1,.885,1.425A5.082,5.082,0,0,1,20.577-6.364Zm-1.223,0a4.474,4.474,0,0,0-.221-1.456,3.08,3.08,0,0,0-.627-1.09,2.719,2.719,0,0,0-.983-.685,3.337,3.337,0,0,0-1.29-.24,3.32,3.32,0,0,0-1.284.24,2.748,2.748,0,0,0-.986.685,3.055,3.055,0,0,0-.63,1.09,4.474,4.474,0,0,0-.221,1.456,4.446,4.446,0,0,0,.221,1.453,3.058,3.058,0,0,0,.63,1.087,2.716,2.716,0,0,0,.986.682,3.358,3.358,0,0,0,1.284.237,3.375,3.375,0,0,0,1.29-.237,2.687,2.687,0,0,0,.983-.682,3.084,3.084,0,0,0,.627-1.087A4.446,4.446,0,0,0,19.354-6.364Zm3.711-4.4h.989a.422.422,0,0,1,.264.08.392.392,0,0,1,.141.2l1.818,6.119q.049.166.089.356t.077.4q.043-.209.086-.4a3.215,3.215,0,0,1,.1-.353l2.07-6.119a.449.449,0,0,1,.144-.194.4.4,0,0,1,.261-.089h.344a.409.409,0,0,1,.261.08.436.436,0,0,1,.144.2l2.058,6.119a6,6,0,0,1,.2.731q.037-.2.068-.387a2.653,2.653,0,0,1,.08-.344l1.825-6.119a.384.384,0,0,1,.138-.2.4.4,0,0,1,.261-.086h.928l-2.746,8.8H31.592L29.362-8.68a3.715,3.715,0,0,1-.123-.442q-.031.123-.058.237t-.058.206L26.88-1.966H25.811Zm15.96,0a.535.535,0,0,1,.237.04.612.612,0,0,1,.175.163l5.1,6.635q-.018-.16-.025-.31T44.5-4.534v-6.235h1.044v8.8h-.6a.512.512,0,0,1-.237-.049.6.6,0,0,1-.187-.166L39.431-8.809q.012.154.018.3t.006.27v6.272H38.411v-8.8Zm11.709,7.8h3.809v1h-5v-8.8h1.192Zm14.652-3.4a5.082,5.082,0,0,1-.313,1.815,4.157,4.157,0,0,1-.885,1.422,3.954,3.954,0,0,1-1.373.925,4.63,4.63,0,0,1-1.772.329A4.607,4.607,0,0,1,59.274-2.2a3.96,3.96,0,0,1-1.37-.925,4.157,4.157,0,0,1-.885-1.422,5.082,5.082,0,0,1-.313-1.815,5.082,5.082,0,0,1,.313-1.815A4.19,4.19,0,0,1,57.9-9.605a3.975,3.975,0,0,1,1.37-.931,4.57,4.57,0,0,1,1.769-.332,4.592,4.592,0,0,1,1.772.332,3.969,3.969,0,0,1,1.373.931,4.19,4.19,0,0,1,.885,1.425A5.082,5.082,0,0,1,65.386-6.364Zm-1.223,0a4.474,4.474,0,0,0-.221-1.456,3.08,3.08,0,0,0-.627-1.09,2.719,2.719,0,0,0-.983-.685,3.337,3.337,0,0,0-1.29-.24,3.32,3.32,0,0,0-1.284.24,2.748,2.748,0,0,0-.986.685,3.054,3.054,0,0,0-.63,1.09,4.474,4.474,0,0,0-.221,1.456,4.446,4.446,0,0,0,.221,1.453,3.058,3.058,0,0,0,.63,1.087,2.716,2.716,0,0,0,.986.682,3.358,3.358,0,0,0,1.284.237,3.375,3.375,0,0,0,1.29-.237,2.687,2.687,0,0,0,.983-.682,3.084,3.084,0,0,0,.627-1.087A4.446,4.446,0,0,0,64.164-6.364Zm11.678,4.4h-.922a.4.4,0,0,1-.258-.08.491.491,0,0,1-.147-.2l-.823-2.126h-3.95l-.823,2.126a.48.48,0,0,1-.147.2.392.392,0,0,1-.258.086h-.922l3.52-8.8h1.21ZM70.074-5.234H73.36L71.978-8.816a6.7,6.7,0,0,1-.264-.829q-.068.252-.132.464t-.126.372Zm16.354-1.13a4.957,4.957,0,0,1-.313,1.8,3.992,3.992,0,0,1-.885,1.388,3.944,3.944,0,0,1-1.37.894,4.765,4.765,0,0,1-1.769.316H78.8v-8.8H82.09a4.765,4.765,0,0,1,1.769.316,3.923,3.923,0,0,1,1.37.9,4.024,4.024,0,0,1,.885,1.391A4.957,4.957,0,0,1,86.427-6.364Zm-1.223,0a4.419,4.419,0,0,0-.221-1.45A3.056,3.056,0,0,0,84.357-8.9a2.672,2.672,0,0,0-.983-.676A3.4,3.4,0,0,0,82.09-9.8H80V-2.93H82.09a3.4,3.4,0,0,0,1.284-.233,2.69,2.69,0,0,0,.983-.673,3.024,3.024,0,0,0,.627-1.078A4.419,4.419,0,0,0,85.2-6.364Zm14.9-4.4v1H97.258v7.8H96.066v-7.8H93.209v-1Zm10.235,8.8h-1.2V-5.971H104.4v4.005h-1.2v-8.8h1.2v3.926h4.743v-3.926h1.2Zm9.418-8.8V-9.8h-4.227v2.924h3.422v.934h-3.422v3h4.227v.971H114.33v-8.8Zm15.948,4.4a5.081,5.081,0,0,1-.313,1.815,4.157,4.157,0,0,1-.885,1.422,3.954,3.954,0,0,1-1.373.925,4.63,4.63,0,0,1-1.772.329A4.607,4.607,0,0,1,129.59-2.2a3.96,3.96,0,0,1-1.37-.925,4.157,4.157,0,0,1-.885-1.422,5.082,5.082,0,0,1-.313-1.815,5.082,5.082,0,0,1,.313-1.815,4.19,4.19,0,0,1,.885-1.425,3.975,3.975,0,0,1,1.37-.931,4.57,4.57,0,0,1,1.769-.332,4.592,4.592,0,0,1,1.772.332,3.969,3.969,0,0,1,1.373.931,4.19,4.19,0,0,1,.885,1.425A5.081,5.081,0,0,1,135.7-6.364Zm-1.223,0a4.474,4.474,0,0,0-.221-1.456,3.079,3.079,0,0,0-.627-1.09,2.719,2.719,0,0,0-.983-.685,3.337,3.337,0,0,0-1.29-.24,3.32,3.32,0,0,0-1.284.24,2.748,2.748,0,0,0-.986.685,3.054,3.054,0,0,0-.63,1.09,4.474,4.474,0,0,0-.221,1.456,4.446,4.446,0,0,0,.221,1.453,3.058,3.058,0,0,0,.63,1.087,2.716,2.716,0,0,0,.986.682,3.358,3.358,0,0,0,1.284.237,3.375,3.375,0,0,0,1.29-.237,2.687,2.687,0,0,0,.983-.682,3.083,3.083,0,0,0,.627-1.087A4.446,4.446,0,0,0,134.48-6.364Zm10.118-4.4V-9.8h-4.227v3.078h3.612v.971h-3.612v3.784h-1.2v-8.8Zm8.8,0V-9.8h-4.227v3.078h3.612v.971h-3.612v3.784h-1.2v-8.8Zm4.786,8.8H156.99v-8.8h1.192Zm10.407-1.818a.247.247,0,0,1,.178.08l.467.51a3.766,3.766,0,0,1-1.312.977,4.472,4.472,0,0,1-1.858.35,4.375,4.375,0,0,1-1.726-.329,3.783,3.783,0,0,1-1.321-.922,4.166,4.166,0,0,1-.848-1.422,5.313,5.313,0,0,1-.3-1.825,4.993,4.993,0,0,1,.323-1.825,4.169,4.169,0,0,1,.906-1.425,4.055,4.055,0,0,1,1.4-.925,4.757,4.757,0,0,1,1.8-.329,4.238,4.238,0,0,1,1.674.3,4.231,4.231,0,0,1,1.25.817l-.387.547a.422.422,0,0,1-.1.1.27.27,0,0,1-.16.04.311.311,0,0,1-.169-.058q-.089-.058-.212-.144t-.289-.184a2.53,2.53,0,0,0-.393-.184,3.248,3.248,0,0,0-.528-.144,3.677,3.677,0,0,0-.694-.058,3.352,3.352,0,0,0-1.293.243,2.9,2.9,0,0,0-1.011.691,3.144,3.144,0,0,0-.66,1.094,4.17,4.17,0,0,0-.237,1.444A4.247,4.247,0,0,0,163.32-4.9a3.242,3.242,0,0,0,.645,1.09,2.72,2.72,0,0,0,.968.679,3.093,3.093,0,0,0,1.2.233,4.889,4.889,0,0,0,.706-.046,2.9,2.9,0,0,0,.581-.144,2.457,2.457,0,0,0,.5-.249,3.892,3.892,0,0,0,.464-.359A.312.312,0,0,1,168.588-3.784Zm5.468,1.818h-1.192v-8.8h1.192Zm11.445,0h-.922a.4.4,0,0,1-.258-.08.491.491,0,0,1-.147-.2l-.823-2.126H179.4l-.823,2.126a.48.48,0,0,1-.147.2.393.393,0,0,1-.258.086h-.922l3.52-8.8h1.21Zm-5.769-3.268h3.287l-1.382-3.582a6.692,6.692,0,0,1-.264-.829q-.068.252-.132.464t-.126.372Zm9.915,2.267h3.809v1h-5v-8.8h1.192Zm17.312-7.8v.442a.673.673,0,0,1-.129.393l-4.982,7h5.025v.971h-6.586v-.467a.6.6,0,0,1,.117-.35L205.393-9.8h-4.872v-.971Zm4.792,8.8H210.56v-8.8h1.192Zm8.533-3.182a2.283,2.283,0,0,1,.151.31q.065.163.126.329.061-.172.129-.329t.154-.316l2.98-5.412a.354.354,0,0,1,.166-.172.764.764,0,0,1,.246-.031h.878v8.8h-1.044V-8.435q0-.129.006-.276t.018-.3l-3.016,5.5a.474.474,0,0,1-.43.276h-.172a.474.474,0,0,1-.43-.276l-3.084-5.523q.018.16.028.313t.009.283v6.469h-1.044v-8.8h.879a.764.764,0,0,1,.246.031.354.354,0,0,1,.166.172Zm16.992-1.216a5.081,5.081,0,0,1-.313,1.815,4.158,4.158,0,0,1-.885,1.422,3.954,3.954,0,0,1-1.373.925,4.63,4.63,0,0,1-1.772.329,4.607,4.607,0,0,1-1.769-.329,3.96,3.96,0,0,1-1.37-.925,4.157,4.157,0,0,1-.885-1.422,5.081,5.081,0,0,1-.313-1.815,5.081,5.081,0,0,1,.313-1.815,4.19,4.19,0,0,1,.885-1.425,3.975,3.975,0,0,1,1.37-.931,4.569,4.569,0,0,1,1.769-.332,4.592,4.592,0,0,1,1.772.332,3.969,3.969,0,0,1,1.373.931,4.191,4.191,0,0,1,.885,1.425A5.081,5.081,0,0,1,237.277-6.364Zm-1.223,0a4.473,4.473,0,0,0-.221-1.456,3.08,3.08,0,0,0-.627-1.09,2.719,2.719,0,0,0-.983-.685,3.337,3.337,0,0,0-1.29-.24,3.32,3.32,0,0,0-1.284.24,2.749,2.749,0,0,0-.986.685,3.055,3.055,0,0,0-.63,1.09,4.473,4.473,0,0,0-.221,1.456,4.445,4.445,0,0,0,.221,1.453,3.059,3.059,0,0,0,.63,1.087,2.716,2.716,0,0,0,.986.682,3.358,3.358,0,0,0,1.284.237,3.375,3.375,0,0,0,1.29-.237,2.687,2.687,0,0,0,.983-.682,3.084,3.084,0,0,0,.627-1.087A4.445,4.445,0,0,0,236.054-6.364Zm8,1.358a4.449,4.449,0,0,1-.181,1.321,2.673,2.673,0,0,1-.534.986,2.331,2.331,0,0,1-.869.617,3.061,3.061,0,0,1-1.186.215,4.812,4.812,0,0,1-1.241-.172q.012-.178.031-.353l.037-.347a.276.276,0,0,1,.077-.169.263.263,0,0,1,.193-.065,1.089,1.089,0,0,1,.295.055,1.765,1.765,0,0,0,.491.055,1.983,1.983,0,0,0,.722-.123,1.31,1.31,0,0,0,.534-.381,1.742,1.742,0,0,0,.332-.66,3.541,3.541,0,0,0,.114-.955v-5.787h1.186Zm5.4,3.041h-1.192v-8.8h1.192Zm12.926-7.427a.476.476,0,0,1-.117.138.259.259,0,0,1-.16.046.425.425,0,0,1-.243-.1,3.87,3.87,0,0,0-.35-.23,2.843,2.843,0,0,0-.51-.23,2.194,2.194,0,0,0-.722-.1,2.134,2.134,0,0,0-.706.108,1.5,1.5,0,0,0-.513.292,1.2,1.2,0,0,0-.31.433,1.374,1.374,0,0,0-.1.538.993.993,0,0,0,.181.611,1.561,1.561,0,0,0,.479.415,3.671,3.671,0,0,0,.676.3l.774.261q.4.135.774.3a2.722,2.722,0,0,1,.676.427,1.946,1.946,0,0,1,.479.633,2.106,2.106,0,0,1,.181.922,2.972,2.972,0,0,1-.2,1.084,2.5,2.5,0,0,1-.574.882,2.687,2.687,0,0,1-.928.59,3.412,3.412,0,0,1-1.25.215,3.818,3.818,0,0,1-1.557-.31,3.653,3.653,0,0,1-1.2-.839l.344-.565a.453.453,0,0,1,.12-.114.281.281,0,0,1,.157-.046.489.489,0,0,1,.295.138,4.913,4.913,0,0,0,.415.3,3.167,3.167,0,0,0,.6.3,2.376,2.376,0,0,0,.863.138,2.269,2.269,0,0,0,.756-.117,1.6,1.6,0,0,0,.562-.329,1.424,1.424,0,0,0,.353-.507,1.693,1.693,0,0,0,.123-.657,1.1,1.1,0,0,0-.181-.654,1.5,1.5,0,0,0-.476-.427,3.327,3.327,0,0,0-.673-.292l-.774-.246a7.8,7.8,0,0,1-.774-.292,2.515,2.515,0,0,1-.673-.43,1.976,1.976,0,0,1-.476-.66,2.352,2.352,0,0,1-.181-.98,2.332,2.332,0,0,1,.181-.9,2.328,2.328,0,0,1,.525-.774,2.546,2.546,0,0,1,.851-.541,3.117,3.117,0,0,1,1.164-.2,3.726,3.726,0,0,1,1.345.233,3.1,3.1,0,0,1,1.063.676Zm10.051,5.609a.247.247,0,0,1,.178.08l.467.51a3.766,3.766,0,0,1-1.312.977,4.472,4.472,0,0,1-1.858.35,4.375,4.375,0,0,1-1.726-.329,3.783,3.783,0,0,1-1.321-.922,4.165,4.165,0,0,1-.848-1.422,5.312,5.312,0,0,1-.3-1.825,4.993,4.993,0,0,1,.323-1.825,4.169,4.169,0,0,1,.906-1.425,4.055,4.055,0,0,1,1.4-.925,4.757,4.757,0,0,1,1.8-.329,4.237,4.237,0,0,1,1.674.3,4.23,4.23,0,0,1,1.25.817l-.387.547a.423.423,0,0,1-.1.1.27.27,0,0,1-.16.04.311.311,0,0,1-.169-.058q-.089-.058-.212-.144t-.289-.184a2.531,2.531,0,0,0-.393-.184,3.249,3.249,0,0,0-.528-.144,3.678,3.678,0,0,0-.694-.058,3.352,3.352,0,0,0-1.293.243,2.9,2.9,0,0,0-1.011.691,3.144,3.144,0,0,0-.66,1.094,4.17,4.17,0,0,0-.237,1.444,4.247,4.247,0,0,0,.237,1.468,3.242,3.242,0,0,0,.645,1.09,2.72,2.72,0,0,0,.968.679,3.093,3.093,0,0,0,1.2.233,4.889,4.889,0,0,0,.706-.046,2.9,2.9,0,0,0,.581-.144,2.457,2.457,0,0,0,.5-.249,3.891,3.891,0,0,0,.464-.359A.312.312,0,0,1,272.435-3.784Zm11.3,1.818h-.922a.4.4,0,0,1-.258-.08.491.491,0,0,1-.147-.2l-.823-2.126h-3.95l-.823,2.126a.48.48,0,0,1-.147.2.393.393,0,0,1-.258.086h-.922l3.52-8.8h1.21Zm-5.769-3.268h3.287l-1.382-3.582a6.7,6.7,0,0,1-.264-.829q-.068.252-.132.464t-.126.372Zm9.338-5.535a.534.534,0,0,1,.237.04.612.612,0,0,1,.175.163l5.1,6.635q-.018-.16-.025-.31t-.006-.292v-6.235h1.044v8.8h-.6a.512.512,0,0,1-.237-.049.6.6,0,0,1-.187-.166l-5.093-6.629q.012.154.018.3t.006.27v6.272h-1.044v-8.8Zm11.132,0a.535.535,0,0,1,.237.04.612.612,0,0,1,.175.163l5.1,6.635q-.018-.16-.025-.31t-.006-.292v-6.235h1.044v8.8h-.6a.512.512,0,0,1-.237-.049.6.6,0,0,1-.187-.166l-5.093-6.629q.012.154.018.3t.006.27v6.272H297.82v-8.8Zm15.942,0V-9.8h-4.227v2.924h3.422v.934h-3.422v3h4.227v.971h-5.425v-8.8Zm4.866,5.13v3.674h-1.186v-8.8h2.488a5.436,5.436,0,0,1,1.444.169,2.756,2.756,0,0,1,1,.488,1.956,1.956,0,0,1,.587.771,2.576,2.576,0,0,1,.19,1.011,2.534,2.534,0,0,1-.147.872,2.3,2.3,0,0,1-.427.728,2.555,2.555,0,0,1-.682.55,3.376,3.376,0,0,1-.912.344,1.259,1.259,0,0,1,.393.375l2.568,3.5H323.5a.521.521,0,0,1-.479-.252L320.74-5.363a.666.666,0,0,0-.227-.212.82.82,0,0,0-.369-.065Zm0-.866h1.247a3.036,3.036,0,0,0,.918-.126,1.869,1.869,0,0,0,.663-.356,1.478,1.478,0,0,0,.4-.55,1.8,1.8,0,0,0,.135-.706,1.4,1.4,0,0,0-.519-1.186,2.509,2.509,0,0,0-1.545-.4h-1.3Z" transform="translate(-1.305 10.867)"/>
</svg>
