<svg xmlns="http://www.w3.org/2000/svg" width="249.73" height="11.326" viewBox="0 0 249.73 11.326">
  <path id="Path_48064" data-name="Path 48064" d="M7.006-9.012a.6.6,0,0,1-.147.174.326.326,0,0,1-.2.058.535.535,0,0,1-.305-.131,4.868,4.868,0,0,0-.441-.29,3.576,3.576,0,0,0-.642-.29,2.761,2.761,0,0,0-.908-.131,2.686,2.686,0,0,0-.889.135,1.89,1.89,0,0,0-.646.367,1.507,1.507,0,0,0-.39.545,1.73,1.73,0,0,0-.131.676,1.25,1.25,0,0,0,.228.769,1.965,1.965,0,0,0,.6.522,4.62,4.62,0,0,0,.85.375q.475.158.974.329t.974.383a3.426,3.426,0,0,1,.85.537,2.45,2.45,0,0,1,.6.8,2.65,2.65,0,0,1,.228,1.16A3.74,3.74,0,0,1,7.37-1.664,3.146,3.146,0,0,1,6.647-.554,3.382,3.382,0,0,1,5.48.188,4.294,4.294,0,0,1,3.906.459a4.8,4.8,0,0,1-1.96-.39A4.6,4.6,0,0,1,.435-.987L.868-1.7a.569.569,0,0,1,.151-.143.353.353,0,0,1,.2-.058.615.615,0,0,1,.371.174,6.183,6.183,0,0,0,.522.383,3.986,3.986,0,0,0,.758.383,2.99,2.99,0,0,0,1.086.174A2.856,2.856,0,0,0,4.9-.933a2.02,2.02,0,0,0,.707-.414,1.792,1.792,0,0,0,.445-.638,2.131,2.131,0,0,0,.155-.827,1.388,1.388,0,0,0-.228-.823,1.891,1.891,0,0,0-.6-.537,4.188,4.188,0,0,0-.847-.367l-.974-.309a9.823,9.823,0,0,1-.974-.367,3.166,3.166,0,0,1-.847-.541,2.487,2.487,0,0,1-.6-.831A2.96,2.96,0,0,1,.914-7.821a2.934,2.934,0,0,1,.228-1.136A2.929,2.929,0,0,1,1.8-9.932a3.2,3.2,0,0,1,1.071-.68,3.922,3.922,0,0,1,1.465-.255,4.689,4.689,0,0,1,1.693.294,3.9,3.9,0,0,1,1.337.85ZM20.83.335H19.322V-4.706H13.354V.335H11.846V-10.744h1.508V-5.8h5.968v-4.94H20.83Zm14.14,0H33.81a.5.5,0,0,1-.325-.1A.618.618,0,0,1,33.3-.021L32.264-2.7H27.293L26.257-.021a.6.6,0,0,1-.186.247.494.494,0,0,1-.325.108h-1.16l4.43-11.079H30.54ZM27.71-3.778h4.136L30.107-8.285a8.424,8.424,0,0,1-.332-1.044q-.085.317-.166.584t-.158.468Zm12.625-.51V.335H38.843V-10.744h3.131a6.841,6.841,0,0,1,1.817.213,3.467,3.467,0,0,1,1.264.615,2.461,2.461,0,0,1,.738.97,3.243,3.243,0,0,1,.24,1.272,3.188,3.188,0,0,1-.186,1.1,2.9,2.9,0,0,1-.537.916,3.215,3.215,0,0,1-.858.692,4.248,4.248,0,0,1-1.148.433,1.584,1.584,0,0,1,.495.472L47.03.335H45.7a.656.656,0,0,1-.6-.317L42.222-3.94a.838.838,0,0,0-.286-.267,1.031,1.031,0,0,0-.464-.081Zm0-1.09H41.9a3.821,3.821,0,0,0,1.156-.158,2.352,2.352,0,0,0,.835-.448,1.86,1.86,0,0,0,.506-.692,2.259,2.259,0,0,0,.17-.889,1.766,1.766,0,0,0-.653-1.492,3.157,3.157,0,0,0-1.944-.5H40.335Zm17.457-5.365v1.222H52.473v3.68h4.306v1.175H52.473V-.887h5.319V.335H50.965V-10.744Zm17.325,0v1.26H71.538V.335h-1.5V-9.484H66.443v-1.26ZM88,.335H86.49V-4.706H80.521V.335H79.014V-10.744h1.508V-5.8H86.49v-4.94H88ZM99.849-10.744v1.222H94.53v3.68h4.306v1.175H94.53V-.887h5.319V.335H93.023V-10.744Zm11.28,9.818h4.793V.335h-6.293V-10.744h1.5ZM121.674.335h-1.5V-10.744h1.5Zm10.963-9.347a.6.6,0,0,1-.147.174.326.326,0,0,1-.2.058.535.535,0,0,1-.305-.131,4.866,4.866,0,0,0-.441-.29,3.577,3.577,0,0,0-.642-.29,2.761,2.761,0,0,0-.908-.131,2.686,2.686,0,0,0-.889.135,1.89,1.89,0,0,0-.646.367,1.508,1.508,0,0,0-.39.545,1.73,1.73,0,0,0-.131.676,1.25,1.25,0,0,0,.228.769,1.965,1.965,0,0,0,.6.522,4.62,4.62,0,0,0,.85.375q.475.158.974.329t.974.383a3.426,3.426,0,0,1,.85.537,2.45,2.45,0,0,1,.6.8,2.65,2.65,0,0,1,.228,1.16A3.74,3.74,0,0,1,133-1.664a3.146,3.146,0,0,1-.723,1.109,3.381,3.381,0,0,1-1.167.742,4.294,4.294,0,0,1-1.573.271,4.8,4.8,0,0,1-1.96-.39,4.6,4.6,0,0,1-1.511-1.055L126.5-1.7a.569.569,0,0,1,.151-.143.353.353,0,0,1,.2-.058.615.615,0,0,1,.371.174,6.183,6.183,0,0,0,.522.383,3.986,3.986,0,0,0,.758.383,2.99,2.99,0,0,0,1.086.174,2.856,2.856,0,0,0,.951-.147,2.02,2.02,0,0,0,.707-.414,1.792,1.792,0,0,0,.445-.638,2.132,2.132,0,0,0,.155-.827,1.388,1.388,0,0,0-.228-.823,1.891,1.891,0,0,0-.6-.537,4.188,4.188,0,0,0-.847-.367l-.974-.309a9.826,9.826,0,0,1-.974-.367,3.166,3.166,0,0,1-.847-.541,2.487,2.487,0,0,1-.6-.831,2.96,2.96,0,0,1-.228-1.233,2.935,2.935,0,0,1,.228-1.136,2.929,2.929,0,0,1,.661-.974,3.2,3.2,0,0,1,1.071-.68,3.922,3.922,0,0,1,1.465-.255,4.69,4.69,0,0,1,1.693.294,3.9,3.9,0,0,1,1.337.85Zm12.385-1.732v1.26h-3.579V.335h-1.5V-9.484h-3.595v-1.26ZM150.7.335h-1.5V-10.744h1.5Zm6.061-11.079a.673.673,0,0,1,.3.05.77.77,0,0,1,.22.2l6.417,8.35q-.023-.2-.031-.39t-.008-.367v-7.847h1.314V.335h-.758a.644.644,0,0,1-.3-.062.752.752,0,0,1-.236-.209l-6.409-8.342q.015.193.023.379t.008.34V.335h-1.314V-10.744ZM174.934-.755a7.34,7.34,0,0,0,.823-.043,5.235,5.235,0,0,0,.707-.128,4.818,4.818,0,0,0,.626-.2q.294-.12.588-.274V-3.848h-1.716a.327.327,0,0,1-.236-.085.278.278,0,0,1-.089-.209v-.85h3.4V-.74a6.145,6.145,0,0,1-.87.526,5.923,5.923,0,0,1-.966.375,7,7,0,0,1-1.1.224,10.315,10.315,0,0,1-1.276.073,5.756,5.756,0,0,1-2.211-.414,5.092,5.092,0,0,1-1.732-1.16A5.265,5.265,0,0,1,169.75-2.9a6.284,6.284,0,0,1-.406-2.3,6.439,6.439,0,0,1,.4-2.312,5.085,5.085,0,0,1,1.136-1.79,5.079,5.079,0,0,1,1.786-1.156,6.4,6.4,0,0,1,2.346-.41,7.246,7.246,0,0,1,1.221.1,5.71,5.71,0,0,1,1.048.278,4.881,4.881,0,0,1,.893.441,5.457,5.457,0,0,1,.765.584l-.425.68a.391.391,0,0,1-.34.209.548.548,0,0,1-.271-.085q-.193-.108-.433-.263a3.708,3.708,0,0,0-.584-.3,4.7,4.7,0,0,0-.812-.244,5.344,5.344,0,0,0-1.109-.1,4.492,4.492,0,0,0-1.693.305,3.581,3.581,0,0,0-1.291.874,3.866,3.866,0,0,0-.82,1.376,5.407,5.407,0,0,0-.286,1.813,5.494,5.494,0,0,0,.3,1.875,3.959,3.959,0,0,0,.839,1.4,3.621,3.621,0,0,0,1.283.874A4.316,4.316,0,0,0,174.934-.755Zm21.748-9.989v.557a.848.848,0,0,1-.162.495l-6.27,8.806h6.324V.335h-8.288V-.253a.753.753,0,0,1,.147-.441l6.278-8.829h-6.131v-1.222ZM202.712.335h-1.5V-10.744h1.5Zm10.738-4a2.877,2.877,0,0,1,.189.39q.081.2.158.414.077-.216.162-.414t.193-.4l3.75-6.811a.445.445,0,0,1,.209-.216.961.961,0,0,1,.309-.039h1.106V.335h-1.314V-7.806q0-.162.008-.348t.023-.379l-3.8,6.927a.6.6,0,0,1-.541.348h-.216a.6.6,0,0,1-.541-.348l-3.881-6.95q.023.2.035.394t.012.356V.335H208V-10.744h1.106a.961.961,0,0,1,.309.039.445.445,0,0,1,.209.216ZM234.834-5.2a6.4,6.4,0,0,1-.394,2.285,5.231,5.231,0,0,1-1.113,1.79A4.975,4.975,0,0,1,231.6.037a5.827,5.827,0,0,1-2.23.414,5.8,5.8,0,0,1-2.227-.414,4.984,4.984,0,0,1-1.724-1.164,5.232,5.232,0,0,1-1.113-1.79A6.4,6.4,0,0,1,223.91-5.2a6.4,6.4,0,0,1,.394-2.285,5.274,5.274,0,0,1,1.113-1.794,5,5,0,0,1,1.724-1.171,5.751,5.751,0,0,1,2.227-.417,5.78,5.78,0,0,1,2.23.417,4.994,4.994,0,0,1,1.728,1.171,5.273,5.273,0,0,1,1.113,1.794A6.4,6.4,0,0,1,234.834-5.2Zm-1.538,0a5.63,5.63,0,0,0-.278-1.832,3.875,3.875,0,0,0-.789-1.372,3.422,3.422,0,0,0-1.237-.862,4.2,4.2,0,0,0-1.624-.3,4.178,4.178,0,0,0-1.616.3,3.459,3.459,0,0,0-1.241.862,3.844,3.844,0,0,0-.792,1.372,5.629,5.629,0,0,0-.278,1.832,5.594,5.594,0,0,0,.278,1.828A3.848,3.848,0,0,0,226.512-2a3.418,3.418,0,0,0,1.241.858,4.226,4.226,0,0,0,1.616.3,4.247,4.247,0,0,0,1.624-.3A3.382,3.382,0,0,0,232.229-2a3.88,3.88,0,0,0,.789-1.368A5.6,5.6,0,0,0,233.3-5.2Zm10.074,1.709a5.6,5.6,0,0,1-.228,1.662,3.365,3.365,0,0,1-.673,1.241,2.934,2.934,0,0,1-1.094.777,3.853,3.853,0,0,1-1.492.271,6.056,6.056,0,0,1-1.562-.216q.015-.224.039-.445t.046-.437a.348.348,0,0,1,.1-.213.331.331,0,0,1,.244-.081,1.37,1.37,0,0,1,.371.07,2.221,2.221,0,0,0,.618.07,2.5,2.5,0,0,0,.908-.155,1.648,1.648,0,0,0,.673-.479,2.191,2.191,0,0,0,.417-.831,4.457,4.457,0,0,0,.143-1.2v-7.283h1.492Zm6.8,3.827h-1.5V-10.744h1.5Z" transform="translate(-0.435 10.867)"/>
</svg>
