<?xml version="1.0" encoding="UTF-8"?>
<svg id="Layer_1" data-name="Layer 1" xmlns="http://www.w3.org/2000/svg" viewBox="0 0 191.29 46.86">
  <defs>
    <style>
      .cls-1 {
        fill: #000;
        stroke-width: 0px;
      }
    </style>
  </defs>
  <path class="cls-1" d="M167.83,25.33c-2.88-4.99-6.11-10.76-9.01-15.79C156.44,5.4,154.22.08,148.3,0c-6.15-.09-8.2,5.35-10.43,9.28-7.09,12.46-21.58,37.55-21.58,37.55h6.69s13.83-24.47,20.69-36.83c.88-1.58,2.62-3.66,4.64-3.66,3.07,0,4.6,3.65,5.98,6.15,3.69,6.71,7.24,13.14,10.7,19.62,1.09,2.04,3.3,4.72,1.78,7.49-.99,1.81-2.97,1.7-5.8,1.7,0,.05-27.29,0-27.29,0v5.53h24.79s5.84.18,8.2-.27c3.92-.74,6.04-3.77,6.6-7.67v-.98c-.13-1.72-.44-3.29-.98-4.64-1.08-2.71-2.91-5.25-4.46-7.94Z"/>
  <path class="cls-1" d="M.86,2.81h29.34L.4,44.44c-.26.38-.4.77-.4,1.19v1.22h34.44v-2.81H4.5L34.24,2.52c.31-.44.46-.89.46-1.36V0H.86v2.81Z"/>
  <rect class="cls-1" x="46.16" width="3.41" height="46.86"/>
  <path class="cls-1" d="M107.83.1c-.18.07-.35.24-.53.53l-18.41,32.55c-.18.31-.34.63-.48.98-.14.34-.28.69-.41,1.04-.24-.71-.53-1.37-.86-1.99L68.23.63c-.18-.29-.36-.46-.55-.53-.19-.07-.44-.1-.74-.1h-2.32v46.86h2.95V6.92c0-.6-.03-1.21-.1-1.85l18.94,32.78c.33.57.77.86,1.32.86h.53c.57,0,1.02-.29,1.32-.86L108.03,5.1c-.07.64-.1,1.25-.1,1.82v39.94h2.98V0h-2.35c-.31,0-.55.03-.73.1Z"/>
  <path class="cls-1" d="M182.46,8.37c.05-.12.07-.25.07-.39,0-.29-.09-.5-.28-.65-.19-.15-.47-.22-.85-.22h-.71v1.82h.68c.19,0,.36-.02.5-.07.15-.05.27-.11.36-.2.1-.08.17-.19.22-.3Z"/>
  <path class="cls-1" d="M177.35,7.11h-.78v1.99h.78c.19,0,.35-.02.49-.07s.26-.12.36-.21c.1-.09.17-.2.22-.32.05-.12.07-.26.07-.41,0-.31-.09-.55-.29-.72-.19-.17-.48-.26-.86-.26Z"/>
  <path class="cls-1" d="M173.27,0v18.02h18.02V0h-18.02ZM179.03,8.71c-.08.19-.19.35-.35.48s-.34.24-.56.32-.48.11-.77.11h-.78v1.81h-.65v-4.83h1.43c.3,0,.57.04.8.11s.41.17.56.3c.15.13.26.29.33.47.07.18.11.39.11.62s-.04.43-.12.62ZM183.03,11.43c-.12,0-.21-.05-.26-.14l-1.25-1.73c-.04-.05-.08-.09-.12-.12-.04-.02-.11-.04-.2-.04h-.5v2.02h-.65v-4.83h1.36c.31,0,.57.03.79.09.22.06.41.15.55.27.14.12.25.26.32.42.07.17.1.35.1.55,0,.17-.03.33-.08.48-.05.15-.13.28-.23.4-.1.12-.23.22-.37.3-.15.08-.31.15-.5.19.08.05.15.12.22.21l1.41,1.92h-.58ZM188.47,10.01c-.11.3-.28.56-.49.78-.21.22-.46.39-.75.51s-.62.18-.97.18-.68-.06-.97-.18-.54-.29-.75-.51c-.21-.22-.37-.48-.49-.78-.12-.3-.17-.63-.17-1s.06-.69.17-1c.11-.3.28-.56.49-.78s.46-.39.75-.51c.29-.12.62-.18.97-.18s.68.06.97.18c.29.12.54.29.75.51s.37.48.49.78c.12.3.17.63.17,1s-.06.69-.17,1Z"/>
  <path class="cls-1" d="M187.51,7.62c-.15-.16-.33-.29-.54-.38-.21-.09-.45-.13-.71-.13s-.49.04-.7.13c-.21.09-.39.21-.54.38-.15.16-.26.36-.35.6-.08.24-.12.5-.12.8s.04.56.12.8.2.43.35.6.33.29.54.37.45.13.7.13.5-.04.71-.13.39-.21.54-.37.26-.36.34-.6c.08-.23.12-.5.12-.8s-.04-.56-.12-.8c-.08-.24-.2-.44-.34-.6Z"/>
</svg>