<svg id="Group_33714" data-name="Group 33714" xmlns="http://www.w3.org/2000/svg" width="160.31" height="40" viewBox="0 0 160.31 40">
  <path id="Path_37283" data-name="Path 37283" d="M114.9,5.477A16.814,16.814,0,0,0,109,1.424,19.643,19.643,0,0,0,101.4,0a19.345,19.345,0,0,0-7.552,1.438,17.224,17.224,0,0,0-4.691,2.907V8.21a12.542,12.542,0,0,1,.888-1.1,14.006,14.006,0,0,1,4.98-3.472,16.431,16.431,0,0,1,6.376-1.2,16.688,16.688,0,0,1,6.445,1.2,13.712,13.712,0,0,1,4.966,3.472A15.85,15.85,0,0,1,116,12.642,22.325,22.325,0,0,1,117.136,20,22.3,22.3,0,0,1,116,27.372a15.872,15.872,0,0,1-3.194,5.519,13.576,13.576,0,0,1-4.966,3.458,16.862,16.862,0,0,1-6.445,1.19,16.6,16.6,0,0,1-6.376-1.19,13.865,13.865,0,0,1-4.98-3.458,12.842,12.842,0,0,1-.888-1.1v3.891a17.034,17.034,0,0,0,4.691,2.893,20.867,20.867,0,0,0,15.159,0,16.9,16.9,0,0,0,5.892-4.038,18.225,18.225,0,0,0,3.817-6.308A23.724,23.724,0,0,0,120.069,20a23.636,23.636,0,0,0-1.356-8.2A18.373,18.373,0,0,0,114.9,5.477" transform="translate(3.725 0)" fill="#fff"/>
  <path id="Path_37284" data-name="Path 37284" d="M79.52.082a.991.991,0,0,0-.456.444l-15.8,27.218a11.348,11.348,0,0,0-.719,1.661q-.166-.442-.346-.872a7.412,7.412,0,0,0-.4-.816L46.422.526C46.414.513,46.405.505,46.4.492v4.8L61.222,31.618a1.206,1.206,0,0,0,1.106.719h.443a1.243,1.243,0,0,0,1.106-.719L79.7,4.233a15.091,15.091,0,0,0-.083,1.549v33.36H82.08V0H80.143a1.955,1.955,0,0,0-.623.082" transform="translate(1.938 0)" fill="#fff"/>
  <rect id="Rectangle_3522" data-name="Rectangle 3522" width="2.849" height="39.143" transform="translate(36.626 0)" fill="#fff"/>
  <path id="Path_37285" data-name="Path 37285" d="M.719,2.351H25.228L.331,37.124a1.7,1.7,0,0,0-.331,1v1.023H28.769v-2.35H3.762L28.6,2.1A1.956,1.956,0,0,0,28.991.968V0H.719Z" transform="translate(0 0)" fill="#fff"/>
  <rect id="Rectangle_3523" data-name="Rectangle 3523" width="2.849" height="39.143" transform="translate(157.461 0)" fill="#fff"/>
  <path id="Path_37286" data-name="Path 37286" d="M140.465,25.85a17.076,17.076,0,0,1-.616,4.855,9.1,9.1,0,0,1-1.791,3.419,7.219,7.219,0,0,1-2.845,2.011,10.167,10.167,0,0,1-3.747.656,9.367,9.367,0,0,1-1.437-.1c-.409-.064-.775-.131-1.094-.2s-.593-.142-.821-.206a2.228,2.228,0,0,0-.588-.095.985.985,0,0,0-.195.028V38.54a17.593,17.593,0,0,0,1.891.41,16.456,16.456,0,0,0,2.489.193,12.88,12.88,0,0,0,4.829-.863,9.473,9.473,0,0,0,3.638-2.557,11.724,11.724,0,0,0,2.3-4.186,18.643,18.643,0,0,0,.806-5.744V0h-2.817Z" transform="translate(5.319 0)" fill="#fff"/>
</svg>
