<?xml version="1.0" encoding="UTF-8"?>
<svg id="Layer_1" data-name="Layer 1" xmlns="http://www.w3.org/2000/svg" viewBox="0 0 18.02 18.02">
  <defs>
    <style>
      .cls-1 {
        fill: #000;
        stroke-width: 0px;
      }
    </style>
  </defs>
  <path class="cls-1" d="M9.19,8.37c.05-.12.07-.25.07-.39,0-.29-.09-.5-.28-.65-.19-.15-.47-.22-.85-.22h-.71v1.82h.68c.19,0,.36-.02.5-.07.15-.05.27-.11.36-.2.1-.08.17-.19.22-.3Z"/>
  <path class="cls-1" d="M4.07,7.11h-.78v1.99h.78c.19,0,.35-.02.49-.07s.26-.12.36-.21c.1-.09.17-.2.22-.32.05-.12.07-.26.07-.41,0-.31-.09-.55-.29-.72-.19-.17-.48-.26-.86-.26Z"/>
  <path class="cls-1" d="M0,0v18.02h18.02V0H0ZM5.76,8.71c-.08.19-.19.35-.35.48s-.34.24-.56.32-.48.11-.77.11h-.78v1.81h-.65v-4.83h1.43c.3,0,.57.04.8.11s.41.17.56.3c.15.13.26.29.33.47.07.18.11.39.11.62s-.04.43-.12.62ZM9.76,11.43c-.12,0-.21-.05-.26-.14l-1.25-1.73c-.04-.05-.08-.09-.12-.12-.04-.02-.11-.04-.2-.04h-.5v2.02h-.65v-4.83h1.36c.31,0,.57.03.79.09.22.06.41.15.55.27.14.12.25.26.32.42.07.17.1.35.1.55,0,.17-.03.33-.08.48-.05.15-.13.28-.23.4-.1.12-.23.22-.37.3-.15.08-.31.15-.5.19.08.05.15.12.22.21l1.41,1.92h-.58ZM15.2,10.01c-.11.3-.28.56-.49.78-.21.22-.46.39-.75.51s-.62.18-.97.18-.68-.06-.97-.18-.54-.29-.75-.51c-.21-.22-.37-.48-.49-.78-.12-.3-.17-.63-.17-1s.06-.69.17-1c.11-.3.28-.56.49-.78s.46-.39.75-.51c.29-.12.62-.18.97-.18s.68.06.97.18c.29.12.54.29.75.51s.37.48.49.78c.12.3.17.63.17,1s-.06.69-.17,1Z"/>
  <path class="cls-1" d="M14.24,7.62c-.15-.16-.33-.29-.54-.38-.21-.09-.45-.13-.71-.13s-.49.04-.7.13c-.21.09-.39.21-.54.38-.15.16-.26.36-.35.6-.08.24-.12.5-.12.8s.04.56.12.8.2.43.35.6.33.29.54.37.45.13.7.13.5-.04.71-.13.39-.21.54-.37.26-.36.34-.6c.08-.23.12-.5.12-.8s-.04-.56-.12-.8c-.08-.24-.2-.44-.34-.6Z"/>
</svg>