<svg xmlns="http://www.w3.org/2000/svg" xmlns:xlink="http://www.w3.org/1999/xlink" width="126.999" height="60" viewBox="0 0 126.999 60">
  <defs>
    <clipPath id="clip-path">
      <rect id="Rectangle_3792" data-name="Rectangle 3792" width="35.249" height="60" fill="#fff"/>
    </clipPath>
  </defs>
  <g id="Group_9029" data-name="Group 9029" transform="translate(-1758 -960)">
    <g id="Group_8740" data-name="Group 8740" transform="translate(1804 960)">
      <g id="Group_8739" data-name="Group 8739" transform="translate(0 0)" clip-path="url(#clip-path)">
        <path id="Path_38181" data-name="Path 38181" d="M17.625,0C7.907,0,0,7.364,0,16.415V43.587C0,52.637,7.907,60,17.625,60s17.625-7.364,17.625-16.414V16.415C35.249,7.364,27.342,0,17.625,0M33.617,43.587c0,8.212-7.174,14.893-15.992,14.893S1.633,51.8,1.633,43.587V16.415C1.633,8.2,8.807,1.521,17.625,1.521S33.617,8.2,33.617,16.415Z" transform="translate(0 0)" fill="#fff"/>
        <path id="Path_38182" data-name="Path 38182" d="M21.114,17.028A1.974,1.974,0,1,0,23.229,19a2.046,2.046,0,0,0-2.114-1.969" transform="translate(-3.49 -4.083)" fill="#fff"/>
      </g>
    </g>
    <g id="Group_8948" data-name="Group 8948" transform="translate(878.5 585.5)">
      <path id="Path_37979" data-name="Path 37979" d="M74.805,401.151l12.5-12.5-12.5-12.5" transform="translate(918.194 16.349)" fill="none" stroke="#fff" stroke-linecap="round" stroke-linejoin="round" stroke-width="2"/>
      <path id="Path_37980" data-name="Path 37980" d="M0,25,12.5,12.5,0,0" transform="translate(893 417.5) rotate(180)" fill="none" stroke="#fff" stroke-linecap="round" stroke-linejoin="round" stroke-width="2" opacity="0.25"/>
    </g>
  </g>
</svg>
